<svg width="69" height="69" viewBox="0 0 69 69" fill="none" xmlns="http://www.w3.org/2000/svg">
<rect width="69" height="69" fill="none"/>
<path d="M23.3857 38.9062L26.5586 49H31.9766V48.7217L28.2471 37.6445C29.113 37.2982 29.8984 36.89 30.6035 36.4199C31.3086 35.9375 31.9209 35.3809 32.4404 34.75C32.9476 34.1191 33.3558 33.4079 33.665 32.6162C33.9743 31.8245 34.166 30.9525 34.2402 30C34.3516 28.6641 34.2031 27.5013 33.7949 26.5117C33.3991 25.5221 32.8177 24.6995 32.0508 24.0439C31.2715 23.3883 30.3438 22.8936 29.2676 22.5596C28.2038 22.2132 27.0534 22.0277 25.8164 22.0029L17.2998 21.9844L12.6055 49H17.708L19.4521 38.9062H23.3857ZM20.1758 34.6758L21.6602 26.2148L25.6123 26.2334C26.2308 26.2581 26.7751 26.3695 27.2451 26.5674C27.7152 26.7529 28.0986 27.0127 28.3955 27.3467C28.6924 27.693 28.9027 28.1198 29.0264 28.627C29.1501 29.1341 29.1686 29.7093 29.082 30.3525C28.9954 31.0576 28.7913 31.6823 28.4697 32.2266C28.1605 32.7708 27.7708 33.2285 27.3008 33.5996C26.8184 33.9707 26.2679 34.2552 25.6494 34.4531C25.0433 34.6387 24.4001 34.7314 23.7197 34.7314L20.1758 34.6758ZM49.8447 41.8193C49.7581 42.4131 49.5602 42.9264 49.251 43.3594C48.9417 43.7799 48.5645 44.1263 48.1191 44.3984C47.6738 44.6829 47.179 44.8932 46.6348 45.0293C46.1029 45.153 45.5648 45.2148 45.0205 45.2148C44.2783 45.2025 43.6227 45.0973 43.0537 44.8994C42.4847 44.6891 42.0208 44.3923 41.6621 44.0088C41.291 43.613 41.0127 43.1305 40.8271 42.5615C40.6416 41.9925 40.5612 41.3431 40.5859 40.6133L35.6133 40.5947C35.5762 41.9554 35.7803 43.1738 36.2256 44.25C36.6833 45.3138 37.3265 46.223 38.1553 46.9775C38.984 47.7321 39.9613 48.3135 41.0869 48.7217C42.2126 49.1175 43.4248 49.3278 44.7236 49.3525C45.9359 49.3773 47.1419 49.2474 48.3418 48.9629C49.554 48.666 50.624 48.1712 51.5518 47.4785C52.4424 46.8229 53.1908 46.0374 53.7969 45.1221C54.403 44.1943 54.7493 43.0811 54.8359 41.7822C54.9102 40.6566 54.7617 39.6423 54.3906 38.7393C54.0319 37.8239 53.5247 37.0199 52.8691 36.3271C52.2012 35.6344 51.4219 35.0407 50.5312 34.5459C49.6406 34.0387 48.7067 33.6182 47.7295 33.2842C47.2718 33.1357 46.7646 32.9626 46.208 32.7646C45.6514 32.5544 45.138 32.2946 44.668 31.9854C44.1855 31.6885 43.8021 31.3236 43.5176 30.8906C43.2331 30.4453 43.1279 29.9072 43.2021 29.2764C43.2764 28.6826 43.4681 28.1693 43.7773 27.7363C44.0866 27.291 44.4639 26.9199 44.9092 26.623C45.3545 26.3385 45.8431 26.1283 46.375 25.9922C46.9193 25.8438 47.4635 25.7757 48.0078 25.7881C48.651 25.8005 49.2077 25.9056 49.6777 26.1035C50.1602 26.3014 50.5622 26.5798 50.8838 26.9385C51.193 27.2972 51.4219 27.7301 51.5703 28.2373C51.7311 28.7445 51.8053 29.3011 51.793 29.9072L56.7285 29.9258C56.7656 28.6641 56.5801 27.526 56.1719 26.5117C55.776 25.4974 55.207 24.6315 54.4648 23.9141C53.7227 23.1966 52.832 22.64 51.793 22.2441C50.7539 21.8483 49.6221 21.638 48.3975 21.6133C47.2223 21.5885 46.0472 21.7308 44.8721 22.04C43.7093 22.3493 42.6517 22.8255 41.6992 23.4688C40.7467 24.112 39.9551 24.916 39.3242 25.8809C38.6934 26.8457 38.3408 27.9714 38.2666 29.2578C38.1924 30.4082 38.3594 31.4349 38.7676 32.3379C39.1882 33.2285 39.7572 34.0078 40.4746 34.6758C41.1921 35.3438 42.0146 35.9189 42.9424 36.4014C43.8825 36.8714 44.835 37.2611 45.7998 37.5703C46.307 37.7435 46.8203 37.9414 47.3398 38.1641C47.8594 38.3867 48.3232 38.6589 48.7314 38.9805C49.1273 39.3145 49.4303 39.7103 49.6406 40.168C49.8633 40.6257 49.9313 41.1761 49.8447 41.8193Z" fill="black"/>
</svg>
